<svg
        width="321"
        height="255"
        viewBox="0 0 321 255"
        fill="none"
        xmlns="http://www.w3.org/2000/svg"
      >
        <path
          d="M93.625 254.875H267.5C297.047 254.875 321 230.922 321 201.375C321 176.281 303.724 155.223 280.417 149.445C280.72 146.734 280.875 143.979 280.875 141.188C280.875 100.56 247.94 67.625 207.312 67.625C173.615 67.625 145.209 90.2827 136.499 121.194C135.589 121.148 134.672 121.125 133.75 121.125C104.203 121.125 80.25 145.078 80.25 174.625C80.25 175.384 80.2658 176.14 80.2971 176.892C64.6881 182.387 53.5 197.262 53.5 214.75C53.5 236.91 71.4646 254.875 93.625 254.875Z"
          fill="white"
        />
      </svg>