<svg width="30" height="30" viewBox="0 0 30 30" fill="none" xmlns="http://www.w3.org/2000/svg">
<path d="M7.56537 5.75787L7.07765 5.26814C6.58993 4.77842 5.80207 4.79097 5.32685 5.26814L5.31435 5.2807C4.82663 5.77043 4.82663 6.56152 5.31435 7.03869L5.80207 7.52842C6.28979 8.01814 7.06514 8.01814 7.55287 7.52842L7.56537 7.51586C8.05309 7.03869 8.05309 6.23504 7.56537 5.75787V5.75787ZM3.76364 13.7442H2.48806C1.80025 13.7442 1.25 14.2967 1.25 14.9873V14.9999C1.25 15.6905 1.80025 16.243 2.48806 16.243H3.75114C4.45146 16.2556 5.00171 15.7031 5.00171 15.0124V14.9999C5.00171 14.2967 4.45146 13.7442 3.76364 13.7442ZM15.0188 1.24988H15.0063C14.3059 1.24988 13.7557 1.80239 13.7557 2.49303V3.69851C13.7557 4.38915 14.3059 4.94166 14.9937 4.94166H15.0063C15.7066 4.95422 16.2568 4.4017 16.2568 3.71106V2.49303C16.2568 1.80239 15.7066 1.24988 15.0188 1.24988V1.24988ZM24.6982 5.2807C24.2104 4.79097 23.4226 4.79097 22.9349 5.26814L22.4471 5.75787C21.9594 6.24759 21.9594 7.03869 22.4471 7.51586L22.4596 7.52842C22.9474 8.01814 23.7352 8.01814 24.2104 7.52842L24.6982 7.03869C25.1859 6.54896 25.1859 5.77043 24.6982 5.2807V5.2807ZM22.4346 24.2419L22.9224 24.7316C23.4101 25.2213 24.1979 25.2213 24.6857 24.7316C25.1734 24.2419 25.1734 23.4508 24.6857 22.9611L24.1979 22.4713C23.7102 21.9816 22.9224 21.9942 22.4471 22.4713C21.9469 22.9736 21.9469 23.7522 22.4346 24.2419ZM25.0108 14.9873V14.9999C25.0108 15.6905 25.5611 16.243 26.2489 16.243H27.5119C28.1998 16.243 28.75 15.6905 28.75 14.9999V14.9873C28.75 14.2967 28.1998 13.7442 27.5119 13.7442H26.2489C25.5611 13.7442 25.0108 14.2967 25.0108 14.9873ZM15.0063 7.46563C10.8669 7.46563 7.50284 10.8435 7.50284 14.9999C7.50284 19.1563 10.8669 22.5341 15.0063 22.5341C19.1456 22.5341 22.5097 19.1563 22.5097 14.9999C22.5097 10.8435 19.1456 7.46563 15.0063 7.46563ZM14.9937 28.7499H15.0063C15.6941 28.7499 16.2443 28.1974 16.2443 27.5067V26.3012C16.2443 25.6106 15.6941 25.0581 15.0063 25.0581H14.9937C14.3059 25.0581 13.7557 25.6106 13.7557 26.3012V27.5067C13.7557 28.1974 14.3059 28.7499 14.9937 28.7499ZM5.31435 24.7191C5.80207 25.2088 6.58993 25.2088 7.07765 24.7191L7.56537 24.2293C8.05309 23.7396 8.04059 22.9485 7.56537 22.4713L7.55287 22.4588C7.06514 21.9691 6.27729 21.9691 5.78956 22.4588L5.30184 22.9485C4.82663 23.4508 4.82663 24.2293 5.31435 24.7191Z" fill="white"/>
</svg>
